<?xml version="1.0" encoding="UTF-8"?>
<!--Generator: Apple Native CoreSVG 341-->
<!DOCTYPE svg
PUBLIC "-//W3C//DTD SVG 1.1//EN"
       "http://www.w3.org/Graphics/SVG/1.1/DTD/svg11.dtd">
<svg version="1.1" xmlns="http://www.w3.org/2000/svg" xmlns:xlink="http://www.w3.org/1999/xlink" viewBox="0 0 247.266 234.668">
 <g>
  <rect height="234.668" opacity="0" width="247.266" x="0" y="0"/>
  <path d="M0 81.543C0 134.57 45.5078 186.523 115.43 231.543C117.871 233.105 121.289 234.668 123.633 234.668C126.074 234.668 129.492 233.105 131.934 231.543C201.758 186.523 247.266 134.57 247.266 81.543C247.266 37.9883 217.285 6.93359 177.148 6.93359C154.199 6.93359 134.668 18.457 123.633 36.1328C112.695 18.5547 93.1641 6.93359 70.1172 6.93359C29.9805 6.93359 0 37.9883 0 81.543ZM17.2852 81.543C17.2852 47.3633 39.6484 24.2188 69.9219 24.2188C93.457 24.2188 107.617 38.8672 116.113 52.6367C119.043 57.1289 120.996 58.4961 123.633 58.4961C126.367 58.4961 128.027 57.0312 131.25 52.6367C140.137 39.0625 153.906 24.2188 177.344 24.2188C207.617 24.2188 229.98 47.3633 229.98 81.543C229.98 128.711 180.566 178.906 125.977 215.234C124.902 215.918 124.121 216.504 123.633 216.504C123.145 216.504 122.363 215.918 121.289 215.234C66.6992 178.906 17.2852 128.711 17.2852 81.543Z" fill="#d12717"/>
 </g>
</svg>
